G75*
G70*
%OFA0B0*%
%FSLAX25Y25*%
%IPPOS*%
%LPD*%
%AMOC8*
5,1,8,0,0,1.08239X$1,22.5*
%
%ADD215C,0.00669*%
%ADD273C,0.01000*%
%ADD65C,0.00787*%
X0000000Y0000000D02*
G01*
G75*
D65*
X0089764Y0139665D02*
X0207480Y0139665D01*
X0209449Y0137697D01*
X0209449Y0086319D02*
X0209449Y0137697D01*
X0205807Y0082677D02*
X0209449Y0086319D01*
X0094291Y0082677D02*
X0205827Y0082677D01*
X0088189Y0088779D02*
X0094291Y0082677D01*
X0088189Y0088779D02*
X0088189Y0138091D01*
X0089764Y0139665D01*
X0089695Y0286811D02*
X0260512Y0286811D01*
X0263268Y0284055D01*
X0269272Y0284055D01*
X0087776Y0142796D02*
X0090016Y0140555D01*
X0270154Y0283172D02*
X0270154Y0141903D01*
X0087776Y0284891D02*
X0087776Y0142796D01*
X0087776Y0284891D02*
X0089695Y0286811D01*
X0090016Y0140555D02*
X0268806Y0140555D01*
X0270154Y0141903D01*
X0269272Y0284055D02*
X0270154Y0283172D01*
X0273917Y0078543D02*
X0273917Y0139665D01*
X0210236Y0139665D02*
X0273917Y0139665D01*
X0238189Y0078543D02*
X0273917Y0078543D01*
X0231004Y0103051D02*
X0233957Y0100098D01*
X0210236Y0103543D02*
X0210236Y0139665D01*
X0210729Y0103051D02*
X0231004Y0103051D01*
X0210236Y0103543D02*
X0210729Y0103051D01*
X0233957Y0082776D02*
X0233957Y0100098D01*
X0233957Y0082776D02*
X0238189Y0078543D01*
X0283465Y0316437D02*
X0356890Y0316437D01*
X0357677Y0266183D02*
X0357677Y0315650D01*
X0297835Y0256299D02*
X0354730Y0256299D01*
X0297835Y0256299D02*
X0297835Y0304823D01*
X0296063Y0306594D02*
X0297835Y0304823D01*
X0283465Y0306594D02*
X0296063Y0306594D01*
X0283465Y0306594D02*
X0283465Y0316437D01*
X0354730Y0266183D02*
X0357677Y0266183D01*
X0354730Y0256299D02*
X0354730Y0266183D01*
X0077854Y0293504D02*
X0077854Y0315936D01*
X0079158Y0288976D02*
X0121850Y0288976D01*
X0077854Y0315936D02*
X0121850Y0316089D01*
X0121850Y0288952D02*
X0121850Y0316089D01*
X0077854Y0293504D02*
X0078937Y0292421D01*
X0078937Y0289173D02*
X0078937Y0292421D01*
X0078937Y0289173D02*
X0079158Y0288976D01*
X0297047Y0255610D02*
X0297047Y0304429D01*
X0275787Y0255610D02*
X0297047Y0255610D01*
X0275787Y0255610D02*
X0275787Y0288780D01*
X0279921Y0292914D02*
X0279921Y0304528D01*
X0281299Y0305906D01*
X0295571Y0305906D01*
X0297047Y0304429D01*
X0275886Y0288878D02*
X0279921Y0292914D01*
X0279984Y0151154D02*
X0280518Y0151688D01*
X0279984Y0087655D02*
X0279984Y0151154D01*
X0279984Y0087655D02*
X0280943Y0086696D01*
X0389148Y0086696D01*
X0280518Y0151688D02*
X0280518Y0249129D01*
X0286719Y0255330D02*
X0388786Y0255330D01*
X0280518Y0249129D02*
X0286719Y0255330D01*
X0388786Y0255330D02*
X0390656Y0253460D01*
X0389148Y0086696D02*
X0390656Y0088204D01*
X0390656Y0253460D01*
X0123819Y0288386D02*
X0272047Y0288386D01*
X0274410Y0290748D01*
X0276476Y0290748D01*
X0279035Y0293307D01*
X0244980Y0310925D02*
X0255315Y0310925D01*
X0123819Y0316928D02*
X0279035Y0316635D01*
X0123819Y0288386D02*
X0123819Y0316928D01*
X0279035Y0293307D02*
X0279035Y0316635D01*
X0053884Y0292416D02*
X0076476Y0292416D01*
X0076476Y0290059D02*
X0079429Y0287106D01*
X0083366Y0239567D02*
X0083366Y0287106D01*
X0082383Y0238584D02*
X0083366Y0239567D01*
X0053445Y0238584D02*
X0082383Y0238584D01*
X0052461Y0239568D02*
X0053445Y0238584D01*
X0052461Y0239568D02*
X0052461Y0290992D01*
X0053884Y0292416D01*
X0076476Y0290059D02*
X0076476Y0292416D01*
X0079429Y0287106D02*
X0083366Y0287106D01*
D215*
X0273766Y0051614D02*
X0274842Y0051614D01*
X0274304Y0051614D01*
X0274304Y0048924D01*
X0274842Y0048386D01*
X0275380Y0048386D01*
X0275918Y0048924D01*
X0272691Y0051076D02*
X0272153Y0051614D01*
X0271077Y0051614D01*
X0270539Y0051076D01*
X0270539Y0050538D01*
X0271077Y0050000D01*
X0271615Y0050000D01*
X0271077Y0050000D01*
X0270539Y0049462D01*
X0270539Y0048924D01*
X0271077Y0048386D01*
X0272153Y0048386D01*
X0272691Y0048924D01*
X0087382Y0140157D02*
G01*
G75*
D65*
X0269272Y0284055D02*
X0270155Y0283172D01*
X0268806Y0140555D02*
X0270155Y0141903D01*
X0090016Y0140555D02*
X0268806Y0140555D01*
X0087776Y0284891D02*
X0089696Y0286810D01*
X0087776Y0284891D02*
X0087776Y0142795D01*
X0270155Y0283172D02*
X0270155Y0141903D01*
X0087776Y0142795D02*
X0090016Y0140555D01*
X0263268Y0284055D02*
X0269272Y0284055D01*
X0260512Y0286810D02*
X0263268Y0284055D01*
X0089696Y0286810D02*
X0260512Y0286810D01*
X0087795Y0082283D02*
G01*
G75*
D65*
X0089764Y0139665D02*
X0207480Y0139665D01*
X0209448Y0137696D01*
X0209448Y0086318D02*
X0209448Y0137696D01*
X0205807Y0082677D02*
X0209448Y0086318D01*
X0094291Y0082677D02*
X0205827Y0082677D01*
X0088189Y0088779D02*
X0094291Y0082677D01*
X0088189Y0088779D02*
X0088189Y0138090D01*
X0089764Y0139665D01*
D273*
X0092830Y0092732D02*
X0092830Y0094306D01*
X0092830Y0093519D01*
X0095979Y0093519D01*
X0095979Y0092732D01*
X0092830Y0096668D02*
X0095979Y0096668D01*
X0095979Y0099029D01*
X0095191Y0099816D01*
X0092830Y0099816D01*
X0091256Y0101390D02*
X0095979Y0101390D01*
X0095979Y0103752D01*
X0095191Y0104539D01*
X0093617Y0104539D01*
X0092830Y0103752D01*
X0092830Y0101390D01*
X0095979Y0106113D02*
X0093617Y0106113D01*
X0092830Y0106901D01*
X0092830Y0109262D01*
X0095979Y0109262D01*
X0096766Y0111623D02*
X0095979Y0111623D01*
X0095979Y0110836D01*
X0095979Y0112411D01*
X0095979Y0111623D01*
X0093617Y0111623D01*
X0092830Y0112411D01*
X0095191Y0114772D02*
X0095191Y0117921D01*
X0096766Y0119495D02*
X0097553Y0120282D01*
X0097553Y0121856D01*
X0096766Y0122643D01*
X0093617Y0122643D01*
X0092830Y0121856D01*
X0092830Y0120282D01*
X0093617Y0119495D01*
X0096766Y0119495D01*
X0092830Y0124218D02*
X0093617Y0124218D01*
X0093617Y0125005D01*
X0092830Y0125005D01*
X0092830Y0124218D01*
X0092830Y0128153D02*
X0092830Y0129728D01*
X0092830Y0128941D01*
X0097553Y0128941D01*
X0096766Y0128153D01*
X0209843Y0078150D02*
G01*
G75*
D65*
X0233957Y0082776D02*
X0238189Y0078544D01*
X0233957Y0082776D02*
X0233957Y0100099D01*
X0210237Y0103544D02*
X0210729Y0103051D01*
X0231005Y0103051D01*
X0210237Y0103544D02*
X0210237Y0139666D01*
X0231005Y0103051D02*
X0233957Y0100099D01*
X0238189Y0078544D02*
X0273918Y0078544D01*
X0210237Y0139666D02*
X0273918Y0139666D01*
X0273918Y0078544D02*
X0273918Y0139666D01*
X0123425Y0287992D02*
G01*
G75*
D65*
X0123819Y0288386D02*
X0272047Y0288386D01*
X0274409Y0290748D01*
X0276476Y0290748D01*
X0279035Y0293307D01*
X0244980Y0310925D02*
X0255315Y0310925D01*
X0123819Y0316928D02*
X0279035Y0316635D01*
X0123819Y0288386D02*
X0123819Y0316928D01*
X0279035Y0293307D02*
X0279035Y0316635D01*
D273*
X0219571Y0290764D02*
X0219571Y0295487D01*
X0217209Y0295487D01*
X0216422Y0294699D01*
X0216422Y0293125D01*
X0217209Y0292338D01*
X0219571Y0292338D01*
X0214061Y0292338D02*
X0212486Y0292338D01*
X0211699Y0293125D01*
X0211699Y0294699D01*
X0212486Y0295487D01*
X0214061Y0295487D01*
X0214848Y0294699D01*
X0214848Y0293125D01*
X0214061Y0292338D01*
X0210125Y0295487D02*
X0210125Y0293125D01*
X0209338Y0292338D01*
X0208551Y0293125D01*
X0207763Y0292338D01*
X0206976Y0293125D01*
X0206976Y0295487D01*
X0203041Y0292338D02*
X0204615Y0292338D01*
X0205402Y0293125D01*
X0205402Y0294699D01*
X0204615Y0295487D01*
X0203041Y0295487D01*
X0202253Y0294699D01*
X0202253Y0293912D01*
X0205402Y0293912D01*
X0200679Y0295487D02*
X0200679Y0292338D01*
X0200679Y0293912D01*
X0199892Y0294699D01*
X0199105Y0295487D01*
X0198318Y0295487D01*
X0192808Y0297061D02*
X0195956Y0297061D01*
X0195956Y0294699D01*
X0194382Y0295487D01*
X0193595Y0295487D01*
X0192808Y0294699D01*
X0192808Y0293125D01*
X0193595Y0292338D01*
X0195169Y0292338D01*
X0195956Y0293125D01*
X0191233Y0294699D02*
X0188085Y0294699D01*
X0186511Y0296274D02*
X0185723Y0297061D01*
X0184149Y0297061D01*
X0183362Y0296274D01*
X0183362Y0293125D01*
X0184149Y0292338D01*
X0185723Y0292338D01*
X0186511Y0293125D01*
X0186511Y0296274D01*
X0181788Y0292338D02*
X0181788Y0293125D01*
X0181001Y0293125D01*
X0181001Y0292338D01*
X0181788Y0292338D01*
X0174703Y0292338D02*
X0177852Y0292338D01*
X0174703Y0295487D01*
X0174703Y0296274D01*
X0175490Y0297061D01*
X0177065Y0297061D01*
X0177852Y0296274D01*
X0283071Y0255906D02*
G01*
G75*
D65*
X0354730Y0256300D02*
X0354730Y0266183D01*
X0357677Y0266183D01*
X0283465Y0306595D02*
X0283465Y0316438D01*
X0283465Y0306595D02*
X0296063Y0306595D01*
X0297835Y0304823D01*
X0297835Y0256300D02*
X0297835Y0304823D01*
X0297835Y0256300D02*
X0354730Y0256300D01*
X0357677Y0266183D02*
X0357677Y0315650D01*
X0283465Y0316438D02*
X0356890Y0316438D01*
D273*
X0301197Y0261335D02*
X0301197Y0263697D01*
X0301984Y0264484D01*
X0302771Y0263697D01*
X0302771Y0262122D01*
X0303558Y0261335D01*
X0304346Y0262122D01*
X0304346Y0264484D01*
X0305920Y0269207D02*
X0301197Y0269207D01*
X0301197Y0266845D01*
X0301984Y0266058D01*
X0303558Y0266058D01*
X0304346Y0266845D01*
X0304346Y0269207D01*
X0303558Y0270781D02*
X0303558Y0273929D01*
X0305133Y0275504D02*
X0305920Y0276291D01*
X0305920Y0277865D01*
X0305133Y0278652D01*
X0301984Y0278652D01*
X0301197Y0277865D01*
X0301197Y0276291D01*
X0301984Y0275504D01*
X0305133Y0275504D01*
X0301197Y0280227D02*
X0301984Y0280227D01*
X0301984Y0281014D01*
X0301197Y0281014D01*
X0301197Y0280227D01*
X0301197Y0284162D02*
X0301197Y0285737D01*
X0301197Y0284949D01*
X0305920Y0284949D01*
X0305133Y0284162D01*
X0279724Y0086280D02*
G01*
G75*
D65*
X0279984Y0151155D02*
X0280517Y0151688D01*
X0279984Y0087655D02*
X0279984Y0151155D01*
X0279984Y0087655D02*
X0280943Y0086696D01*
X0389147Y0086696D01*
X0280517Y0151688D02*
X0280517Y0249129D01*
X0286718Y0255330D02*
X0388785Y0255330D01*
X0280517Y0249129D02*
X0286718Y0255330D01*
X0388785Y0255330D02*
X0390655Y0253460D01*
X0389147Y0086696D02*
X0390655Y0088204D01*
X0390655Y0253460D01*
X0077461Y0288583D02*
G01*
G75*
D65*
X0078937Y0289174D02*
X0079159Y0288977D01*
X0078937Y0289174D02*
X0078937Y0292422D01*
X0077855Y0293504D02*
X0078937Y0292422D01*
X0121851Y0288952D02*
X0121851Y0316090D01*
X0077855Y0315937D02*
X0121851Y0316090D01*
X0079159Y0288977D02*
X0121851Y0288977D01*
X0077855Y0293504D02*
X0077855Y0315937D01*
D273*
X0111206Y0310743D02*
X0113568Y0310743D01*
X0114355Y0309956D01*
X0114355Y0308382D01*
X0113568Y0307595D01*
X0111206Y0307595D01*
X0108845Y0310743D02*
X0107270Y0310743D01*
X0106483Y0309956D01*
X0106483Y0307595D01*
X0108845Y0307595D01*
X0109632Y0308382D01*
X0108845Y0309169D01*
X0106483Y0309169D01*
X0104909Y0307595D02*
X0104909Y0310743D01*
X0102548Y0310743D01*
X0101760Y0309956D01*
X0101760Y0307595D01*
X0100186Y0309956D02*
X0097038Y0309956D01*
X0095463Y0311531D02*
X0094676Y0312318D01*
X0093102Y0312318D01*
X0092315Y0311531D01*
X0092315Y0308382D01*
X0093102Y0307595D01*
X0094676Y0307595D01*
X0095463Y0308382D01*
X0095463Y0311531D01*
X0090740Y0307595D02*
X0090740Y0308382D01*
X0089953Y0308382D01*
X0089953Y0307595D01*
X0090740Y0307595D01*
X0086805Y0307595D02*
X0085230Y0307595D01*
X0086017Y0307595D01*
X0086017Y0312318D01*
X0086805Y0311531D01*
X0275394Y0255217D02*
G01*
G75*
D65*
X0297048Y0255611D02*
X0297048Y0304430D01*
X0275788Y0255611D02*
X0297048Y0255611D01*
X0275788Y0255611D02*
X0275788Y0288780D01*
X0279922Y0292914D02*
X0279922Y0304528D01*
X0281300Y0305906D01*
X0295571Y0305906D01*
X0297048Y0304430D01*
X0275886Y0288878D02*
X0279922Y0292914D01*
D273*
X0290764Y0272556D02*
X0290764Y0274130D01*
X0290764Y0273343D01*
X0295487Y0273343D01*
X0295487Y0272556D01*
X0290764Y0276491D02*
X0290764Y0278066D01*
X0290764Y0277278D01*
X0293913Y0277278D01*
X0293913Y0276491D01*
X0290764Y0280427D02*
X0293913Y0280427D01*
X0293913Y0282788D01*
X0293125Y0283576D01*
X0290764Y0283576D01*
X0293125Y0285150D02*
X0293125Y0288298D01*
X0294700Y0289873D02*
X0295487Y0290660D01*
X0295487Y0292234D01*
X0294700Y0293021D01*
X0291551Y0293021D01*
X0290764Y0292234D01*
X0290764Y0290660D01*
X0291551Y0289873D01*
X0294700Y0289873D01*
X0290764Y0294596D02*
X0291551Y0294596D01*
X0291551Y0295383D01*
X0290764Y0295383D01*
X0290764Y0294596D01*
X0290764Y0298531D02*
X0290764Y0300106D01*
X0290764Y0299319D01*
X0295487Y0299319D01*
X0294700Y0298531D01*
X0052362Y0238189D02*
G01*
G75*
D65*
X0079134Y0287106D02*
X0083071Y0287106D01*
X0076181Y0290059D02*
X0076181Y0292416D01*
X0052362Y0291189D02*
X0053589Y0292416D01*
X0052362Y0239371D02*
X0053150Y0238584D01*
X0082088Y0238584D01*
X0083071Y0239567D01*
X0083071Y0287106D01*
X0076181Y0290059D02*
X0079134Y0287106D01*
X0053589Y0292416D02*
X0076181Y0292416D01*
D273*
X0056019Y0243618D02*
X0056019Y0245192D01*
X0056019Y0244405D01*
X0059168Y0244405D01*
X0059168Y0243618D01*
X0054445Y0249128D02*
X0054445Y0249915D01*
X0055232Y0250703D01*
X0059168Y0250703D01*
X0059168Y0248341D01*
X0058381Y0247554D01*
X0056806Y0247554D01*
X0056019Y0248341D01*
X0056019Y0250703D01*
X0056019Y0252277D02*
X0059168Y0252277D01*
X0059168Y0254638D01*
X0058381Y0255425D01*
X0056019Y0255425D01*
X0059955Y0257000D02*
X0060742Y0257787D01*
X0060742Y0259361D01*
X0059955Y0260148D01*
X0059168Y0260148D01*
X0058381Y0259361D01*
X0057593Y0260148D01*
X0056806Y0260148D01*
X0056019Y0259361D01*
X0056019Y0257787D01*
X0056806Y0257000D01*
X0057593Y0257000D01*
X0058381Y0257787D01*
X0059168Y0257000D01*
X0059955Y0257000D01*
X0058381Y0257787D02*
X0058381Y0259361D01*
X0058381Y0261723D02*
X0058381Y0264871D01*
X0059955Y0266445D02*
X0060742Y0267232D01*
X0060742Y0268807D01*
X0059955Y0269594D01*
X0056806Y0269594D01*
X0056019Y0268807D01*
X0056019Y0267232D01*
X0056806Y0266445D01*
X0059955Y0266445D01*
X0056019Y0271168D02*
X0056806Y0271168D01*
X0056806Y0271955D01*
X0056019Y0271955D01*
X0056019Y0271168D01*
X0056019Y0275104D02*
X0056019Y0276678D01*
X0056019Y0275891D01*
X0060742Y0275891D01*
X0059955Y0275104D01*
M02*
